/* XPM */
static char * HexCell_xpm[] = {
"52 45 2 1",
" 	g None",
".	g #FFFFFF",
"             ..........................             ",
"            ............................            ",
"            ............................            ",
"           ..............................           ",
"           ..............................           ",
"          ................................          ",
"         ..................................         ",
"         ..................................         ",
"        ....................................        ",
"        ....................................        ",
"       ......................................       ",
"      .......................................       ",
"      ........................................      ",
"     ..........................................     ",
"     ..........................................     ",
"    ............................................    ",
"    ............................................    ",
"   ..............................................   ",
"  ...............................................   ",
"  ................................................  ",
" .................................................. ",
" .................................................. ",
"....................................................",
" .................................................. ",
" .................................................. ",
"  ................................................  ",
"   ..............................................   ",
"   ..............................................   ",
"    ............................................    ",
"    ............................................    ",
"     ..........................................     ",
"     .........................................      ",
"      ........................................      ",
"       ......................................       ",
"       ......................................       ",
"        ....................................        ",
"        ....................................        ",
"         ..................................         ",
"          ................................          ",
"          ................................          ",
"           ..............................           ",
"           ..............................           ",
"            ............................            ",
"            ............................            ",
"             ..........................             "};
