/* XPM */

static char const * HexCell_xpm[] = {
"52 45 3 1",
" 	c None",
"+	c #292929",
"@	c #4E4E4E",
"                                                    ",
"             ++++++++++++++++++++++++++             ",
"             ++++++++++++++++++++++++++             ",
"            ++++++++++++++++++++++++++++            ",
"            ++++@@@@@@@@@@@@@@@@@@@@++++            ",
"           ++++@@@@@@@@@@@@@@@@@@@@@@++++           ",
"          +++++@@++++++++++++++++++@@+++++          ",
"          ++++@@@++++++++++++++++++@@@++++          ",
"         ++++@@@++++++++++++++++++++@@@++++         ",
"         ++++@@++++++++++++++++++++++@@++++         ",
"        ++++@@@++++++++++++++++++++++@@@++++        ",
"       +++++@@++++++++++++++++++++++++@@++++        ",
"       ++++@@@++++++++++++++++++++++++@@@++++       ",
"      ++++@@@++++++++++++++++++++++++++@@+++++      ",
"      ++++@@+++++++++++++++++++++++++++@@@++++      ",
"     ++++@@@++++++++++++++++++++++++++++@@@++++     ",
"     ++++@@++++++++++++++++++++++++++++++@@++++     ",
"    ++++@@@++++++++++++++++++++++++++++++@@@++++    ",
"   +++++@@++++++++++++++++++++++++++++++++@@++++    ",
"   ++++@@@++++++++++++++++++++++++++++++++@@@++++   ",
"  ++++@@@++++++++++++++++++++++++++++++++++@@+++++  ",
"  ++++@@+++++++++++++++++++++++++++++++++++@@@++++  ",
" ++++@@@++++++++++++++++++++++++++++++++++++@@@++++ ",
"  ++++@@@++++++++++++++++++++++++++++++++++@@@++++  ",
"  +++++@@++++++++++++++++++++++++++++++++++@@+++++  ",
"   ++++@@@++++++++++++++++++++++++++++++++@@@++++   ",
"    ++++@@++++++++++++++++++++++++++++++++@@++++    ",
"    ++++@@@++++++++++++++++++++++++++++++@@@++++    ",
"     ++++@@+++++++++++++++++++++++++++++@@@++++     ",
"     ++++@@@++++++++++++++++++++++++++++@@+++++     ",
"      ++++@@@++++++++++++++++++++++++++@@@++++      ",
"      +++++@@++++++++++++++++++++++++++@@++++       ",
"       ++++@@@++++++++++++++++++++++++@@@++++       ",
"        ++++@@++++++++++++++++++++++++@@++++        ",
"        ++++@@@++++++++++++++++++++++@@@++++        ",
"         ++++@@@++++++++++++++++++++@@@++++         ",
"         +++++@@++++++++++++++++++++@@+++++         ",
"          ++++@@@++++++++++++++++++@@@++++          ",
"           ++++@@++++++++++++++++++@@++++           ",
"           ++++@@@@@@@@@@@@@@@@@@@@@@++++           ",
"            ++++@@@@@@@@@@@@@@@@@@@@++++            ",
"            ++++++++++++++++++++++++++++            ",
"             ++++++++++++++++++++++++++             ",
"             ++++++++++++++++++++++++++             ",
"                                                    "};
