/* XPM */
static char * HexCell_xpm[] = {
"52 45 4 1",
" 	c None",
".	c #FF0000",
"+	c #292929",
"@	c #4E4E4E",
"             ..........................             ",
"            .++++++++++++++++++++++++++.            ",
"            .++++++++++++++++++++++++++.            ",
"           .++++++++++++++++++++++++++++.           ",
"           .++++@@@@@@@@@@@@@@@@@@@@++++.           ",
"          .++++@@@@@@@@@@@@@@@@@@@@@@++++.          ",
"         .+++++@@++++++++++++++++++@@+++++.         ",
"         .++++@@@++++++++++++++++++@@@++++.         ",
"        .++++@@@++++++++++++++++++++@@@++++.        ",
"        .++++@@++++++++++++++++++++++@@++++.        ",
"       .++++@@@++++++++++++++++++++++@@@++++.       ",
"      .+++++@@++++++++++++++++++++++++@@++++.       ",
"      .++++@@@++++++++++++++++++++++++@@@++++.      ",
"     .++++@@@++++++++++++++++++++++++++@@+++++.     ",
"     .++++@@+++++++++++++++++++++++++++@@@++++.     ",
"    .++++@@@++++++++++++++++++++++++++++@@@++++.    ",
"    .++++@@++++++++++++++++++++++++++++++@@++++.    ",
"   .++++@@@++++++++++++++++++++++++++++++@@@++++.   ",
"  .+++++@@++++++++++++++++++++++++++++++++@@++++.   ",
"  .++++@@@++++++++++++++++++++++++++++++++@@@++++.  ",
" .++++@@@++++++++++++++++++++++++++++++++++@@+++++. ",
" .++++@@+++++++++++++++++++++++++++++++++++@@@++++. ",
".++++@@@++++++++++++++++++++++++++++++++++++@@@++++.",
" .++++@@@++++++++++++++++++++++++++++++++++@@@++++. ",
" .+++++@@++++++++++++++++++++++++++++++++++@@+++++. ",
"  .++++@@@++++++++++++++++++++++++++++++++@@@++++.  ",
"   .++++@@++++++++++++++++++++++++++++++++@@++++.   ",
"   .++++@@@++++++++++++++++++++++++++++++@@@++++.   ",
"    .++++@@+++++++++++++++++++++++++++++@@@++++.    ",
"    .++++@@@++++++++++++++++++++++++++++@@+++++.    ",
"     .++++@@@++++++++++++++++++++++++++@@@++++.     ",
"     .+++++@@++++++++++++++++++++++++++@@++++.      ",
"      .++++@@@++++++++++++++++++++++++@@@++++.      ",
"       .++++@@++++++++++++++++++++++++@@++++.       ",
"       .++++@@@++++++++++++++++++++++@@@++++.       ",
"        .++++@@@++++++++++++++++++++@@@++++.        ",
"        .+++++@@++++++++++++++++++++@@+++++.        ",
"         .++++@@@++++++++++++++++++@@@++++.         ",
"          .++++@@++++++++++++++++++@@++++.          ",
"          .++++@@@@@@@@@@@@@@@@@@@@@@++++.          ",
"           .++++@@@@@@@@@@@@@@@@@@@@++++.           ",
"           .++++++++++++++++++++++++++++.           ",
"            .++++++++++++++++++++++++++.            ",
"            .++++++++++++++++++++++++++.            ",
"             ..........................             "};
