/* XPM */

static char const * Particles_xpm[] = {
"54 9 5 1",
" 	c #FFFFFF",
".	c #191919",
"+	c #333333",
"@	c #999999",
"#	c #CCCCCC",
"                      .       .+.       .             ",
"                     .@.     .+@+.     .@.            ",
"             .       +.+    .+@@@+.    +.+       .    ",
"            ...    .+@+@+. .+@@#@@+. .+@+@+.    ...   ",
"    .      ..+..  .@.+#+.@.+@@###@@+.@.+#+.@.  ..+..  ",
"            ...    .+@+@+. .+@@#@@+. .+@+@+.    ...   ",
"             .       +.+    .+@@@+.    +.+       .    ",
"                     .@.     .+@+.     .@.            ",
"                      .       .+.       .             "};
